<?xml version="1.0" encoding="UTF-8"?><svg id="uuid-191f8377-6704-48fa-a85b-28e87230da67" xmlns="http://www.w3.org/2000/svg" xmlns:xlink="http://www.w3.org/1999/xlink" viewBox="0 0 222.756 54"><defs><linearGradient id="uuid-6f412f17-f745-43a2-939d-504796eb3077" x1="4.439" y1="26.516" x2="44.435" y2="26.516" gradientUnits="userSpaceOnUse"><stop offset=".065" stop-color="#155be7"/><stop offset=".728" stop-color="#cd5ac9"/></linearGradient></defs><rect x="0" width="50.211" height="54" rx="9.279" ry="9.279" fill="#fff"/><path d="M22.697,12.521L44.328,2.505s.242,27.337,0,36.445c-.025.955-.099,1.855-1.432,3.541-.655.829-2.23,1.642-3.089,1.953-2.387.866-9.807,2.643-9.807,2.643v-12.267s4.332-3.054,5.3-4.324c1.588-2.084,2.186-4.071,2.365-5.574.121-1.016.074-4.093.074-4.093,0,0-.02-.17-.307-.217-.2-.033-.412.105-.412.105,0,0-4.439,4.474-5.922,5.713-1.419,1.185-5.687,3.986-5.687,3.986,0,0-7.745,4.717-10.22,6.45-1.257.88-3.697,2.863-4.781,3.851-.876.798-2.719,2.929-2.719,2.929l6.31-1.967v4.996s-3.948,1.298-5.681,1.931c-.9.329-3.88,1.92-3.88,1.92,0,0,.023-20.272.046-27.934.002-.597.829-1.665,1.212-2.059.452-.464,2.129-1.375,2.129-1.375l7.174-2.97.095,11.848s7.602-4.487,9.624-6.4c3.655-3.456,5.582-6.648,5.582-6.648,0,0-2.278-1.005-4.047-1.595-.87-.29-3.557-.874-3.557-.874Z" fill="url(#uuid-6f412f17-f745-43a2-939d-504796eb3077)"/><path d="M53.39,31.547V6.793h6.761v9.37h8.755V6.793h6.761v24.753h-6.761v-9.869h-8.755v9.869h-6.761Z" fill="#0c2347"/><path d="M77.794,31.547l8.09-24.753h9.187l8.339,24.753h-7.642l-2.857-9.603c-.609-2.082-1.188-4.222-1.736-6.421-.548-2.198-1.071-4.399-1.57-6.604h1.595c-.476,2.204-.963,4.405-1.462,6.604-.498,2.199-1.052,4.339-1.661,6.421l-2.774,9.603h-7.509ZM83.791,26.945v-5.083h13.623v5.083h-13.623Z" fill="#0c2347"/><path d="M105.537,31.547V6.793h6.761v19.237h10.15v5.516h-16.911Z" fill="#0c2347"/><path d="M124.841,31.547V6.793h6.762v19.237h10.15v5.516h-16.912Z" fill="#0c2347"/><path d="M144.145,31.547V6.793h18.142v5.515h-11.38v4.087h10.449v5.349h-10.449v4.286h11.33v5.516h-18.092Z" fill="#0c2347"/><path d="M172.52,31.547l-8.307-24.753h7.609l2.874,9.602c.62,2.083,1.196,4.192,1.728,6.33.531,2.138,1.047,4.303,1.545,6.496h-1.611c.487-2.193.98-4.358,1.479-6.496.498-2.137,1.047-4.247,1.645-6.33l2.741-9.602h7.509l-8.04,24.753h-9.171Z" fill="#0c2347"/><path d="M201.791,31.896c-2.248,0-4.283-.49-6.105-1.471-1.821-.979-3.264-2.414-4.327-4.303-1.063-1.888-1.595-4.2-1.595-6.936,0-2.758.531-5.083,1.595-6.978,1.063-1.894,2.506-3.328,4.327-4.303,1.822-.974,3.857-1.462,6.105-1.462s4.28.488,6.097,1.462c1.816.975,3.259,2.409,4.328,4.303,1.068,1.894,1.603,4.22,1.603,6.978s-.534,5.064-1.603,6.953c-1.069,1.888-2.512,3.32-4.328,4.294s-3.849,1.462-6.097,1.462ZM201.791,26.014c1.118,0,2.055-.263,2.808-.789.753-.526,1.323-1.298,1.711-2.317s.582-2.259.582-3.721c0-1.473-.194-2.722-.582-3.746s-.958-1.8-1.711-2.326c-.753-.526-1.689-.789-2.808-.789-1.097,0-2.024.263-2.782.789-.759.526-1.335,1.302-1.729,2.326-.393,1.024-.589,2.273-.589,3.746,0,1.462.196,2.702.589,3.721.394,1.019.97,1.792,1.729,2.317.758.526,1.686.789,2.782.789Z" fill="#0c2347"/><path d="M219.334,31.929c-.975,0-1.791-.324-2.45-.972-.659-.648-.988-1.454-.988-2.417s.329-1.77.988-2.418c.659-.647,1.476-.972,2.45-.972.964,0,1.774.324,2.434.972.659.648.988,1.454.988,2.418s-.329,1.769-.988,2.417c-.659.647-1.47.972-2.434.972Z" fill="#0c2347"/><path d="M57.281,46.275c-.706,0-1.319-.118-1.84-.354-.521-.236-.927-.565-1.217-.987-.29-.422-.45-.918-.48-1.489h1.246c.026.385.143.706.351.964.208.257.481.45.821.577.339.128.713.191,1.12.191.446,0,.843-.071,1.191-.214.348-.143.623-.343.824-.601.201-.257.302-.557.302-.898,0-.303-.082-.553-.247-.75s-.391-.36-.678-.49c-.288-.13-.618-.244-.99-.344l-1.149-.318c-.827-.225-1.456-.542-1.889-.951-.433-.408-.649-.936-.649-1.58,0-.55.145-1.029.435-1.438.29-.409.686-.728,1.188-.954.502-.228,1.069-.341,1.701-.341.645,0,1.213.114,1.704.344.491.229.877.545,1.159.947.281.402.43.861.448,1.376h-1.194c-.052-.502-.275-.891-.669-1.168-.394-.277-.889-.415-1.486-.415-.416,0-.781.069-1.097.207-.316.139-.562.327-.737.565-.175.237-.263.511-.263.817,0,.316.096.574.289.775.192.202.433.362.72.483.288.122.575.221.86.299l.993.267c.307.077.621.183.941.314s.617.3.89.503c.272.204.493.457.662.76.168.303.253.666.253,1.091,0,.536-.14,1.017-.418,1.44-.279.425-.681.759-1.204,1.003-.524.245-1.153.367-1.889.367Z" fill="#0c2347"/><path d="M62.474,46.106v-7.166h1.123l.007,1.57h-.104c.108-.381.27-.696.483-.947.214-.251.465-.439.753-.564.288-.126.588-.188.899-.188.528,0,.96.16,1.298.48.338.319.554.731.649,1.233h-.175c.091-.347.249-.648.474-.906.225-.257.499-.456.821-.597s.676-.211,1.062-.211c.419,0,.803.091,1.149.272s.622.457.828.824c.206.368.308.833.308,1.396v4.804h-1.155v-4.777c0-.528-.147-.904-.441-1.13-.294-.225-.636-.337-1.026-.337-.329,0-.611.068-.847.204-.236.137-.419.324-.549.564s-.195.514-.195.821v4.654h-1.149v-4.895c0-.406-.135-.733-.406-.98-.271-.246-.611-.369-1.022-.369-.286,0-.553.065-.802.197-.249.132-.449.329-.601.591s-.227.586-.227.971v4.485h-1.156Z" fill="#0c2347"/><path d="M76.054,46.263c-.458,0-.873-.085-1.243-.254s-.664-.417-.883-.746c-.218-.329-.328-.729-.328-1.201,0-.411.081-.744.243-.999.163-.256.379-.458.649-.607s.571-.261.902-.334c.331-.074.665-.132,1.003-.176.437-.056.789-.1,1.055-.13s.463-.081.591-.152c.127-.071.191-.195.191-.373v-.046c0-.289-.058-.538-.172-.746-.115-.208-.285-.367-.51-.478-.225-.109-.504-.165-.837-.165-.342,0-.635.053-.879.159-.245.105-.444.242-.597.409-.154.166-.261.343-.321.528l-1.123-.292c.147-.437.37-.788.668-1.055.299-.266.642-.461,1.029-.584s.787-.185,1.198-.185c.277,0,.571.035.883.106s.604.196.879.373c.275.178.499.43.672.757.173.326.26.747.26,1.262v4.771h-1.136v-.986h-.064c-.083.168-.212.342-.39.519-.178.178-.409.326-.695.445s-.634.179-1.045.179ZM76.242,45.236c.437,0,.802-.083,1.097-.25.294-.166.517-.384.669-.652.151-.268.227-.549.227-.844v-.974c-.048.052-.146.1-.295.143-.149.044-.322.083-.52.117-.197.035-.392.063-.584.088-.192.023-.356.044-.49.062-.277.034-.537.094-.779.179-.242.084-.437.206-.584.366-.147.16-.221.377-.221.649,0,.242.063.447.191.613.127.167.302.292.522.377.221.084.476.126.766.126Z" fill="#0c2347"/><path d="M81.344,46.106v-7.166h1.11v1.104h.065c.134-.363.365-.655.694-.876s.708-.331,1.136-.331c.091,0,.192.002.305.006.113.005.199.009.26.013v1.162c-.035-.009-.12-.021-.256-.039-.136-.017-.282-.026-.438-.026-.325,0-.618.07-.88.208-.262.139-.467.334-.617.585-.149.251-.224.547-.224.889v4.473h-1.156Z" fill="#0c2347"/><path d="M89.283,38.94v.986h-3.745v-.986h3.745ZM86.654,37.182h1.156v7.095c0,.307.063.531.191.672.127.141.343.211.646.211.078,0,.174-.007.289-.02.115-.014.22-.026.315-.039l.188.974c-.121.034-.256.061-.406.078-.149.017-.295.025-.438.025-.619,0-1.097-.158-1.435-.474-.337-.316-.506-.762-.506-1.337v-7.186Z" fill="#0c2347"/><path d="M94.489,46.106v-9.672h5.979v1.078h-4.758v3.154h4.427v1.084h-4.427v3.278h4.804v1.077h-6.024Z" fill="#0c2347"/><path d="M104.349,46.106l-2.74-7.166h1.259l1.532,4.226c.156.42.29.838.402,1.256s.229.823.351,1.217h-.39c.121-.394.239-.799.354-1.217s.248-.836.399-1.256l1.526-4.226h1.252l-2.739,7.166h-1.207Z" fill="#0c2347"/><path d="M112.333,46.263c-.692,0-1.29-.156-1.792-.468s-.887-.744-1.155-1.298c-.269-.555-.402-1.197-.402-1.929s.133-1.378.399-1.94.643-1.002,1.129-1.317c.487-.316,1.053-.474,1.698-.474.407,0,.798.067,1.175.204s.714.351,1.013.642c.298.293.534.668.707,1.127s.26,1.006.26,1.643v.447h-5.634v-.974h5.004l-.525.351c0-.472-.077-.889-.23-1.253-.153-.363-.378-.647-.675-.854-.296-.205-.661-.308-1.094-.308-.429,0-.797.104-1.107.312-.31.207-.546.483-.711.827s-.247.722-.247,1.133v.61c0,.523.09.972.27,1.344s.435.655.766.851c.331.194.717.292,1.159.292.294,0,.559-.044.795-.13.236-.087.438-.215.607-.383.169-.169.296-.377.382-.624l1.123.247c-.107.377-.296.71-.564,1s-.603.516-1.002.678c-.4.162-.85.244-1.347.244Z" fill="#0c2347"/><path d="M118.104,41.835v4.271h-1.155v-7.166h1.11l.006,1.732h-.194c.221-.657.534-1.128.941-1.411.406-.283.885-.425,1.434-.425.485,0,.912.101,1.282.302s.66.503.87.908c.21.404.314.914.314,1.528v4.531h-1.155v-4.44c0-.562-.145-1-.435-1.314-.29-.313-.688-.47-1.194-.47-.347,0-.657.073-.932.221-.274.146-.493.365-.652.655-.16.29-.24.649-.24,1.077Z" fill="#0c2347"/><path d="M127.562,38.94v.986h-3.746v-.986h3.746ZM124.933,37.182h1.155v7.095c0,.307.063.531.191.672s.343.211.646.211c.078,0,.175-.007.289-.02.114-.014.22-.026.314-.039l.188.974c-.121.034-.256.061-.405.078-.149.017-.296.025-.438.025-.619,0-1.097-.158-1.435-.474-.338-.316-.506-.762-.506-1.337v-7.186Z" fill="#0c2347"/><path d="M132.768,46.106v-9.672h1.714l2.401,6.134c.057.144.12.32.191.532.071.213.148.439.23.682.082.243.16.483.234.721.073.238.136.454.188.649h-.272c.057-.187.121-.396.195-.63.073-.233.149-.473.229-.717.08-.245.158-.477.234-.695.075-.218.142-.398.198-.542l2.362-6.134h1.721v9.672h-1.201v-5.544c0-.198,0-.425.003-.678s.007-.516.013-.789c.007-.272.014-.55.02-.834.007-.283.013-.557.017-.821h.117c-.091.299-.188.6-.292.902-.104.304-.204.596-.299.877-.096.281-.186.536-.27.766-.085.229-.157.422-.218.577l-2.181,5.544h-1.045l-2.214-5.544c-.061-.151-.131-.339-.211-.564-.08-.225-.169-.476-.267-.753-.097-.276-.198-.568-.305-.876s-.213-.617-.321-.929h.137c.008.243.016.501.022.776.006.274.012.552.016.831.005.278.009.548.014.808.004.26.006.495.006.707v5.544h-1.168Z" fill="#0c2347"/><path d="M146.542,46.263c-.459,0-.874-.085-1.243-.254-.37-.169-.665-.417-.883-.746-.219-.329-.328-.729-.328-1.201,0-.411.081-.744.243-.999.162-.256.379-.458.649-.607s.571-.261.902-.334c.331-.074.665-.132,1.003-.176.437-.056.788-.1,1.055-.13.266-.03.463-.081.591-.152s.191-.195.191-.373v-.046c0-.289-.058-.538-.172-.746-.115-.208-.285-.367-.51-.478-.225-.109-.504-.165-.837-.165-.343,0-.636.053-.88.159-.245.105-.443.242-.598.409-.153.166-.261.343-.321.528l-1.123-.292c.147-.437.37-.788.669-1.055.299-.266.642-.461,1.029-.584.387-.123.786-.185,1.197-.185.276,0,.571.035.883.106s.604.196.88.373c.274.178.498.43.672.757.173.326.259.747.259,1.262v4.771h-1.136v-.986h-.064c-.082.168-.212.342-.39.519-.178.178-.409.326-.694.445-.286.119-.635.179-1.045.179ZM146.729,45.236c.438,0,.803-.083,1.098-.25.294-.166.517-.384.668-.652.151-.268.228-.549.228-.844v-.974c-.048.052-.146.1-.296.143-.148.044-.322.083-.519.117-.197.035-.392.063-.585.088-.192.023-.355.044-.489.062-.277.034-.537.094-.779.179-.242.084-.438.206-.584.366-.147.16-.221.377-.221.649,0,.242.063.447.191.613.128.167.302.292.522.377.221.084.476.126.766.126Z" fill="#0c2347"/><path d="M152.987,41.835v4.271h-1.155v-7.166h1.109l.007,1.732h-.194c.221-.657.534-1.128.94-1.411.407-.283.886-.425,1.435-.425.485,0,.912.101,1.282.302s.66.503.87.908c.21.404.314.914.314,1.528v4.531h-1.155v-4.44c0-.562-.145-1-.435-1.314-.29-.313-.688-.47-1.194-.47-.347,0-.657.073-.932.221-.275.146-.492.365-.652.655s-.24.649-.24,1.077Z" fill="#0c2347"/><path d="M161.602,46.263c-.459,0-.874-.085-1.243-.254-.37-.169-.665-.417-.883-.746-.219-.329-.328-.729-.328-1.201,0-.411.081-.744.243-.999.162-.256.379-.458.649-.607s.571-.261.902-.334c.331-.074.665-.132,1.003-.176.437-.056.788-.1,1.055-.13.266-.03.463-.081.591-.152s.191-.195.191-.373v-.046c0-.289-.058-.538-.172-.746-.115-.208-.285-.367-.51-.478-.225-.109-.504-.165-.837-.165-.343,0-.636.053-.88.159-.245.105-.443.242-.598.409-.153.166-.261.343-.321.528l-1.123-.292c.147-.437.37-.788.669-1.055.299-.266.642-.461,1.029-.584.387-.123.786-.185,1.197-.185.276,0,.571.035.883.106s.604.196.88.373c.274.178.498.43.672.757.173.326.259.747.259,1.262v4.771h-1.136v-.986h-.064c-.082.168-.212.342-.39.519-.178.178-.409.326-.694.445-.286.119-.635.179-1.045.179ZM161.789,45.236c.438,0,.803-.083,1.098-.25.294-.166.517-.384.668-.652.151-.268.228-.549.228-.844v-.974c-.048.052-.146.1-.296.143-.148.044-.322.083-.519.117-.197.035-.392.063-.585.088-.192.023-.355.044-.489.062-.277.034-.537.094-.779.179-.242.084-.438.206-.584.366-.147.16-.221.377-.221.649,0,.242.063.447.191.613.128.167.302.292.522.377.221.084.476.126.766.126Z" fill="#0c2347"/><path d="M169.812,48.963c-.528,0-.991-.07-1.39-.211-.397-.141-.727-.334-.986-.578s-.454-.521-.584-.827l.986-.475c.096.165.221.33.377.497.155.166.362.305.619.415.258.11.584.166.978.166.584,0,1.061-.143,1.428-.429.368-.285.552-.725.552-1.317v-1.363h-.084c-.104.164-.238.341-.402.529-.165.188-.386.347-.662.477-.277.13-.63.195-1.059.195-.584,0-1.105-.14-1.564-.419-.458-.279-.82-.684-1.084-1.214s-.396-1.168-.396-1.912c0-.74.13-1.384.39-1.931.259-.548.619-.973,1.08-1.275s.992-.454,1.594-.454c.429,0,.781.068,1.059.207.276.139.499.306.668.5s.303.374.402.539h.085v-1.143h1.123v7.315c0,.632-.14,1.147-.419,1.548s-.655.693-1.13.88c-.474.186-1,.279-1.58.279ZM169.773,45.016c.438,0,.809-.102,1.113-.305s.536-.495.694-.876.237-.833.237-1.357c0-.515-.078-.968-.233-1.359-.156-.392-.387-.698-.691-.919-.306-.221-.679-.331-1.12-.331-.445,0-.822.113-1.13.341-.307.228-.539.537-.697.929s-.237.838-.237,1.34c0,.511.08.957.24,1.338s.394.676.701.886.682.314,1.123.314Z" fill="#0c2347"/><path d="M177.901,46.263c-.692,0-1.29-.156-1.792-.468s-.887-.744-1.155-1.298c-.269-.555-.402-1.197-.402-1.929s.133-1.378.399-1.94c.266-.562.643-1.002,1.129-1.317.487-.316,1.053-.474,1.697-.474.407,0,.799.067,1.175.204.377.137.715.351,1.013.642.299.293.535.668.708,1.127s.26,1.006.26,1.643v.447h-5.635v-.974h5.005l-.525.351c0-.472-.077-.889-.23-1.253-.154-.363-.379-.647-.676-.854-.296-.205-.661-.308-1.094-.308-.428,0-.797.104-1.106.312-.31.207-.546.483-.711.827-.164.344-.246.722-.246,1.133v.61c0,.523.09.972.269,1.344.18.372.436.655.767.851.331.194.717.292,1.158.292.295,0,.56-.044.796-.13.235-.087.438-.215.606-.383.169-.169.297-.377.383-.624l1.123.247c-.108.377-.296.71-.564,1s-.603.516-1.003.678-.85.244-1.347.244Z" fill="#0c2347"/><path d="M182.517,46.106v-7.166h1.123l.006,1.57h-.104c.108-.381.27-.696.483-.947s.465-.439.753-.564c.288-.126.588-.188.899-.188.527,0,.961.16,1.298.48.338.319.554.731.649,1.233h-.176c.092-.347.249-.648.475-.906.225-.257.498-.456.821-.597.322-.141.676-.211,1.061-.211.42,0,.803.091,1.149.272.346.182.622.457.827.824.206.368.309.833.309,1.396v4.804h-1.155v-4.777c0-.528-.147-.904-.441-1.13-.294-.225-.636-.337-1.025-.337-.329,0-.611.068-.848.204-.235.137-.418.324-.548.564s-.195.514-.195.821v4.654h-1.148v-4.895c0-.406-.136-.733-.406-.98-.271-.246-.611-.369-1.022-.369-.285,0-.553.065-.802.197-.248.132-.448.329-.6.591-.152.262-.228.586-.228.971v4.485h-1.155Z" fill="#0c2347"/><path d="M197.051,46.263c-.692,0-1.29-.156-1.792-.468s-.887-.744-1.155-1.298c-.269-.555-.402-1.197-.402-1.929s.133-1.378.399-1.94c.266-.562.643-1.002,1.129-1.317.487-.316,1.053-.474,1.697-.474.407,0,.799.067,1.175.204.377.137.715.351,1.013.642.299.293.535.668.708,1.127s.26,1.006.26,1.643v.447h-5.635v-.974h5.005l-.525.351c0-.472-.077-.889-.23-1.253-.154-.363-.379-.647-.676-.854-.296-.205-.661-.308-1.094-.308-.428,0-.797.104-1.106.312-.31.207-.546.483-.711.827-.164.344-.246.722-.246,1.133v.61c0,.523.09.972.269,1.344.18.372.436.655.767.851.331.194.717.292,1.158.292.295,0,.56-.044.796-.13.235-.087.438-.215.606-.383.169-.169.297-.377.383-.624l1.123.247c-.108.377-.296.71-.564,1s-.603.516-1.003.678-.85.244-1.347.244Z" fill="#0c2347"/><path d="M202.821,41.835v4.271h-1.155v-7.166h1.109l.007,1.732h-.194c.221-.657.534-1.128.94-1.411.407-.283.886-.425,1.435-.425.485,0,.912.101,1.282.302s.66.503.87.908c.21.404.314.914.314,1.528v4.531h-1.155v-4.44c0-.562-.145-1-.435-1.314-.29-.313-.688-.47-1.194-.47-.347,0-.657.073-.932.221-.275.146-.492.365-.652.655s-.24.649-.24,1.077Z" fill="#0c2347"/><path d="M212.279,38.94v.986h-3.746v-.986h3.746ZM209.65,37.182h1.155v7.095c0,.307.063.531.191.672s.343.211.646.211c.078,0,.175-.007.289-.02.114-.014.22-.026.314-.039l.188.974c-.121.034-.256.061-.405.078-.149.017-.296.025-.438.025-.619,0-1.097-.158-1.435-.474-.338-.316-.506-.762-.506-1.337v-7.186Z" fill="#0c2347"/></svg>